<svg width="85" height="85" viewBox="0 0 85 85" fill="none" xmlns="http://www.w3.org/2000/svg">
<path d="M26.5625 79.6875H15.9375C15.233 79.6875 14.5574 79.4076 14.0592 78.9095C13.5611 78.4114 13.2812 77.7357 13.2812 77.0312V58.4375C13.2812 56.3241 14.1208 54.2972 15.6152 52.8027C17.1097 51.3083 19.1366 50.4688 21.25 50.4688H26.5625C27.267 50.4688 27.9426 50.7486 28.4408 51.2467C28.9389 51.7449 29.2188 52.4205 29.2188 53.125V77.0312C29.2188 77.7357 28.9389 78.4114 28.4408 78.9095C27.9426 79.4076 27.267 79.6875 26.5625 79.6875ZM18.5938 74.375H23.9062V55.7812H21.25C20.5455 55.7812 19.8699 56.0611 19.3717 56.5592C18.8736 57.0574 18.5938 57.733 18.5938 58.4375V74.375Z" fill="white"/>
<path d="M47.8125 79.6875H37.1875C36.483 79.6875 35.8074 79.4076 35.3092 78.9095C34.8111 78.4114 34.5312 77.7357 34.5312 77.0312V50.4688C34.5312 48.3553 35.3708 46.3284 36.8652 44.834C38.3597 43.3396 40.3866 42.5 42.5 42.5H47.8125C48.517 42.5 49.1926 42.7799 49.6908 43.278C50.1889 43.7761 50.4688 44.4518 50.4688 45.1562V77.0312C50.4688 77.7357 50.1889 78.4114 49.6908 78.9095C49.1926 79.4076 48.517 79.6875 47.8125 79.6875ZM39.8438 74.375H45.1562V47.8125H42.5C41.7955 47.8125 41.1199 48.0924 40.6217 48.5905C40.1236 49.0886 39.8438 49.7643 39.8438 50.4688V74.375Z" fill="white"/>
<path d="M69.0625 79.6875H58.4375C57.733 79.6875 57.0574 79.4076 56.5592 78.9095C56.0611 78.4114 55.7812 77.7357 55.7812 77.0312V42.5C55.7812 40.3866 56.6208 38.3597 58.1152 36.8652C59.6097 35.3708 61.6366 34.5313 63.75 34.5312H69.0625C69.767 34.5312 70.4426 34.8111 70.9408 35.3092C71.4389 35.8074 71.7188 36.483 71.7188 37.1875V55.7812C71.7188 56.4857 71.4389 57.1614 70.9408 57.6595C70.4426 58.1576 69.767 58.4375 69.0625 58.4375C68.358 58.4375 67.6824 58.1576 67.1842 57.6595C66.6861 57.1614 66.4062 56.4857 66.4062 55.7812V39.8438H63.75C63.0455 39.8438 62.3699 40.1236 61.8717 40.6217C61.3736 41.1199 61.0938 41.7955 61.0938 42.5V74.375H66.4062V71.7188C66.4062 71.0143 66.6861 70.3386 67.1842 69.8405C67.6824 69.3424 68.358 69.0625 69.0625 69.0625C69.767 69.0625 70.4426 69.3424 70.9408 69.8405C71.4389 70.3386 71.7188 71.0143 71.7188 71.7188V77.0312C71.7188 77.7357 71.4389 78.4114 70.9408 78.9095C70.4426 79.4076 69.767 79.6875 69.0625 79.6875Z" fill="white"/>
<path d="M21.2481 42.4999C20.6259 42.4931 20.0259 42.268 19.5527 41.864C19.0794 41.46 18.7631 40.9027 18.6587 40.2893C18.5544 39.6759 18.6687 39.0453 18.9817 38.5075C19.2947 37.9698 19.7866 37.559 20.3715 37.3468C24.9087 35.7405 29.0752 33.2352 32.6215 29.981C36.1678 26.7268 39.0211 22.7905 41.0106 18.4078L39.0184 17.239C38.6159 17.0055 38.2818 16.6704 38.0495 16.2671C37.8173 15.8639 37.695 15.4067 37.695 14.9413C37.695 14.476 37.8173 14.0188 38.0495 13.6156C38.2818 13.2123 38.6159 12.8772 39.0184 12.6437L54.9559 3.39994C55.3597 3.1668 55.8178 3.04407 56.284 3.04407C56.7503 3.04407 57.2084 3.1668 57.6122 3.39994C58.0175 3.63396 58.3538 3.97095 58.5871 4.37676C58.8203 4.78258 58.9422 5.24282 58.9403 5.71088V24.3046C58.9449 24.7701 58.827 25.2286 58.5986 25.6342C58.3702 26.0398 58.0392 26.3782 57.6387 26.6156C57.2349 26.8487 56.7769 26.9714 56.3106 26.9714C55.8443 26.9714 55.3863 26.8487 54.9825 26.6156L52.6184 25.2609C49.0367 30.2858 44.3733 34.4431 38.9717 37.4267C33.5701 40.4102 27.568 42.1438 21.4075 42.4999H21.2481ZM45.659 14.9546C46.2024 15.272 46.6155 15.7719 46.8247 16.3654C47.0339 16.9589 47.0256 17.6073 46.8012 18.1953C44.9631 23.0999 42.2042 27.6079 38.6731 31.4765C43.0646 28.5944 46.7726 24.7867 49.5372 20.3203C49.8785 19.7107 50.4463 19.2602 51.1175 19.0663C51.7887 18.8724 52.5093 18.9507 53.1231 19.2843L53.6544 19.6031V10.3062L45.659 14.9546Z" fill="white"/>
<path d="M69.0625 66.4062C70.5295 66.4062 71.7188 65.217 71.7188 63.75C71.7188 62.283 70.5295 61.0938 69.0625 61.0938C67.5955 61.0938 66.4062 62.283 66.4062 63.75C66.4062 65.217 67.5955 66.4062 69.0625 66.4062Z" fill="white"/>
</svg>
