<svg width="55" height="21" viewBox="0 0 55 21" fill="none" xmlns="http://www.w3.org/2000/svg">
<g clip-path="url(#clip0_1070_6327)">
<path d="M0 4.11035H3.6119V20.98H0V4.11035Z" fill="url(#paint0_linear_1070_6327)"/>
<path d="M27.139 8.49806C27.0216 8.9594 27.0137 9.33561 27.2215 9.792C28.2478 11.7086 32.0397 10.7028 34.1102 12.3898C34.5776 12.7808 34.9416 13.2837 35.1703 13.853C36.5665 17.1438 34.0853 21.0098 30.5679 20.9979L23.1074 20.9771L23.1383 17.619L29.6749 17.6952C31.3665 17.717 32.5031 16.1033 31.7812 14.543C31.7454 14.4638 31.7036 14.3876 31.6578 14.3143C29.9971 12.3898 27.7058 12.3007 27.1052 10.3197C26.8973 9.61182 26.7203 8.91881 27.14 8.49707L27.139 8.49806Z" fill="url(#paint1_linear_1070_6327)"/>
<path fill-rule="evenodd" clip-rule="evenodd" d="M33.0591 3.99951L27.6611 4.04307C24.1576 4.06485 22.1756 8.1417 23.5987 11.4147C23.8314 11.9829 24.3376 12.4839 24.807 12.87C25.707 13.5917 27.1072 13.8748 28.4129 14.1382C30.1234 14.4837 31.642 14.7955 31.7146 16.0182C31.7444 16.534 31.457 16.9032 31.3317 17.0587C31.3118 17.0834 31.2969 17.1022 31.2909 17.1111C31.9523 16.6409 32.3202 15.4856 32.1064 14.7777C31.7852 13.7441 30.8882 13.2293 29.9166 12.671C29.0235 12.1581 28.0669 11.6087 27.4344 10.587C27.3876 10.5137 27.3459 10.4375 27.3091 10.3593C26.5752 8.80797 27.3369 7.21307 29.0226 7.21802L33.0591 7.23287V3.99951Z" fill="url(#paint2_linear_1070_6327)"/>
<path d="M11.9663 16.3192L16.9287 20.9771H22.2869L16.9436 15.8291L11.9673 16.3192H11.9663Z" fill="url(#paint3_linear_1070_6327)"/>
<path fill-rule="evenodd" clip-rule="evenodd" d="M6.1886 4.11336V4.10742H15.3864C16.1919 4.10841 16.9895 4.26681 17.7334 4.57371C18.4772 4.88062 19.1535 5.33008 19.7233 5.89735C20.2931 6.46463 20.7446 7.13783 21.0529 7.87835C21.3612 8.61888 21.5193 9.41286 21.5193 10.2148C21.5193 11.0167 21.3612 11.8107 21.0529 12.5512C20.7446 13.2917 20.2931 13.9649 19.7233 14.5322C19.1535 15.0995 18.4772 15.5489 17.7334 15.8558C16.9895 16.1627 16.1919 16.3201 15.3864 16.3201H11.9674L11.9784 13.2818L13.7376 13.2868L15.4739 13.2293C15.8538 13.2293 16.2307 13.1551 16.5818 13.0096C16.9328 12.865 17.252 12.6522 17.5215 12.3849C17.7901 12.1176 18.0039 11.7998 18.1491 11.4493C18.2942 11.0998 18.3698 10.6583 18.3688 10.2791C18.3688 9.51483 18.0635 8.71491 17.5206 8.17436C16.9776 7.63382 16.2417 7.32989 15.4729 7.32989H9.12426V20.9781H5.55811V4.11336H6.1886Z" fill="url(#paint4_linear_1070_6327)"/>
<path fill-rule="evenodd" clip-rule="evenodd" d="M41.8242 16.0112H42.8087V19.8881H45.4769V20.8682H41.8242V16.0112Z" fill="#4676F1"/>
<path d="M37.9747 19.3578V20.9249H36.9524V15.9175H39.1591C39.6782 15.9175 40.1158 16.0818 40.4718 16.4115C40.8278 16.7352 41.0058 17.1431 41.0058 17.6342C41.0058 18.1252 40.8278 18.54 40.4718 18.8647C40.1158 19.1934 39.6782 19.3587 39.1591 19.3587H37.9747V19.3578ZM39.1591 16.859H37.9747V18.4163H39.1591C39.3829 18.4163 39.5688 18.343 39.716 18.1965C39.8632 18.045 39.9368 17.8569 39.9368 17.6342C39.9368 17.4114 39.8632 17.2263 39.716 17.0797C39.5688 16.9332 39.3829 16.859 39.1591 16.859Z" fill="#4676F1"/>
<path fill-rule="evenodd" clip-rule="evenodd" d="M51.4289 16.4511C51.2519 16.6729 51.1634 16.9511 51.1634 17.2847C51.1634 17.6005 51.2509 17.8609 51.4259 18.0648C51.6069 18.2687 51.8953 18.4361 52.2901 18.5667L53.4168 18.9291C53.8246 19.0716 54.0284 19.2578 54.0284 19.4865C54.0284 19.5944 53.9956 19.6884 53.931 19.7696C53.8872 19.824 53.8295 19.8726 53.7559 19.9141C53.5809 20.0191 53.3542 20.0725 53.0757 20.0725C52.7774 20.0725 52.5317 20.0141 52.3378 19.8963C52.1439 19.7785 52.0236 19.6241 51.9778 19.432L51.0261 19.5716C51.0977 19.9923 51.3115 20.324 51.6676 20.5656C52.0236 20.8012 52.487 20.919 53.0568 20.919C53.6267 20.919 54.109 20.7923 54.466 20.5378C54.5664 20.4666 54.652 20.3864 54.7245 20.2983C54.7305 20.2913 54.7355 20.2844 54.7405 20.2775C54.9135 20.0557 55 19.7835 55 19.4597C55 19.136 54.8996 18.8558 54.6987 18.6331C54.5048 18.4103 54.1905 18.2212 53.7559 18.0668L52.6193 17.6955C52.2951 17.5837 52.134 17.4233 52.134 17.2124C52.134 17.1124 52.1638 17.0263 52.2235 16.953C52.2603 16.9075 52.308 16.8669 52.3677 16.8313C52.5228 16.7382 52.7237 16.6917 52.9703 16.6917C53.5143 16.6917 53.8444 16.8709 53.9608 17.2302L54.9125 17.0718C54.9105 17.06 54.9075 17.0471 54.9055 17.0352C54.828 16.6748 54.6301 16.3897 54.3109 16.1798C53.9807 15.9571 53.56 15.8452 53.0479 15.8452C52.478 15.8452 52.0216 15.969 51.6785 16.2165C51.584 16.2848 51.5035 16.36 51.4349 16.4442C51.4329 16.4461 51.4309 16.4481 51.4299 16.4511H51.4289Z" fill="#4676F1"/>
<path fill-rule="evenodd" clip-rule="evenodd" d="M45.7197 18.5834V16.144H46.7043V18.5834C46.7043 19.3378 47.3188 19.9496 48.0766 19.9496C48.8344 19.9496 49.449 19.3378 49.449 18.5834V16.144H50.4335V18.5834C50.4335 19.8793 49.3784 20.9307 48.0766 20.9307C46.7749 20.9307 45.7188 19.8803 45.7188 18.5834H45.7197Z" fill="#4676F1"/>
<path d="M35.9857 0H33.4558V3.88082H35.9857V0Z" fill="#ABE87B"/>
<path d="M35.9857 7.33594H33.4558V11.2168H35.9857V7.33594Z" fill="#ABE87B"/>
<path d="M36.3945 4.35203V6.87061H40.2928V4.35203H36.3945Z" fill="#ABE87B"/>
</g>
<defs>
<linearGradient id="paint0_linear_1070_6327" x1="1.80098" y1="5.40528" x2="1.81084" y2="21.1939" gradientUnits="userSpaceOnUse">
<stop stop-color="#7397F4"/>
<stop offset="1" stop-color="#3C6EF0"/>
</linearGradient>
<linearGradient id="paint1_linear_1070_6327" x1="30.2706" y1="9.88803" x2="28.9576" y2="19.9737" gradientUnits="userSpaceOnUse">
<stop stop-color="#396CF0"/>
<stop offset="1" stop-color="#7397F4"/>
</linearGradient>
<linearGradient id="paint2_linear_1070_6327" x1="34.6373" y1="6.71906" x2="28.0237" y2="11.163" gradientUnits="userSpaceOnUse">
<stop stop-color="#ABE87B"/>
<stop offset="1" stop-color="#7397F4"/>
</linearGradient>
<linearGradient id="paint3_linear_1070_6327" x1="14.367" y1="15.0777" x2="19.2282" y2="21.422" gradientUnits="userSpaceOnUse">
<stop stop-color="#3C6EF0"/>
<stop offset="1" stop-color="#7397F4"/>
</linearGradient>
<linearGradient id="paint4_linear_1070_6327" x1="4.43237" y1="15.6479" x2="10.1998" y2="11.1866" gradientUnits="userSpaceOnUse">
<stop stop-color="#396CF0"/>
<stop offset="1" stop-color="#7397F4"/>
</linearGradient>
<clipPath id="clip0_1070_6327">
<rect width="55" height="21" fill="white"/>
</clipPath>
</defs>
</svg>
